# xmcd
#
# Track frame offsets: 
#        150
#        11395
#        45773
#        57040
#        68353
#        78269
#        87072
#        98049
#        107490
#        118003
#        127575
#        139830
#        156809
#        170357
#        188342
#        206816
#        220665
#
# Disc length: 3190 seconds
#
# Revision: 0
# Processed by: cddbd v1.5.2PL0 Copyright (c) Steve Scherf et al.
# Submitted via: ExactAudioCopy v0.95b4
#
DISCID=c00c7411
DTITLE=Duffy Power - Vampers And Champers CD2
DYEAR=2006
DGENRE=Blues
TTITLE0=Midnight Special
TTITLE1=Gin House Blues
TTITLE2=Fox And Geese
TTITLE3=Fixing A Hole
TTITLE4=Roll Over Beethoven
TTITLE5=Little Man You've Had A Busy Day
TTITLE6=City Women
TTITLE7=Dr Love
TTITLE8=Holiday
TTITLE9=Love Song
TTITLE10=Halfway
TTITLE11=Corrina
TTITLE12=Lovers Prayer
TTITLE13=The Fool
TTITLE14=Spaces
TTITLE15=Sweet Again
TTITLE16='Til We Meet Again
EXTD=
EXTT0=
EXTT1=
EXTT2=
EXTT3=
EXTT4=
EXTT5=
EXTT6=
EXTT7=
EXTT8=
EXTT9=
EXTT10=
EXTT11=
EXTT12=
EXTT13=
EXTT14=
EXTT15=
EXTT16=
PLAYORDER=
